<?xml version="1.0" encoding="iso-8859-1"?>
<!-- Uploaded to: SVG Repo, www.svgrepo.com, Generator: SVG Repo Mixer Tools -->
<svg height="800px" width="800px" version="1.1" id="Layer_1" xmlns="http://www.w3.org/2000/svg" xmlns:xlink="http://www.w3.org/1999/xlink" 
	 viewBox="0 0 512.002 512.002" xml:space="preserve">
<path style="fill:#D7DEED;" d="M124.503,441.651c-13.433-5.373-22.705-17.881-23.757-32.31
	c-2.008-27.554-7.939-74.167-25.455-109.198c-19.386-38.773-35.311-85.103-35.311-132.416c0-32.368,11.402-72.829,44.139-105.933
	C137.341,7.975,183.064,0,243.019,0c97.105,0,134.826,39.006,151.727,61.794c16.368,22.069,26.142,70.141,33.656,86.622
	c5.702,12.506,8.276,23.725,1.655,38.07c-6.621,14.345-3.859,20.067,1.288,30.161c4.781,9.379,26.549,40.794,33.84,47.082
	c7.357,6.345,11.495,23.449-2.023,30.345c-9.524,4.86-21.15,4.598-22.254,8.643c-1.103,4.046-2.558,10.182,2.241,17.781
	c2.843,4.501,3.839,12.102-6.722,18.01c-1.553,0.868-1.792,2.971-0.643,4.329c2.267,2.681,4.854,7.017,2.916,11.376
	c-2.943,6.621-10.667,6.621-11.402,17.931c-0.501,7.7,5.517,17.655,3.862,30.621c-1.655,12.966-15.449,30.345-38.897,29.794
	c-23.449-0.552-48.075-4.064-59.496,7.357c-6.033,6.033-8.531,32.76-9.567,53.87c-0.646,13.152-14.077,21.714-26.302,16.823
	L124.503,441.651z"/>
<path style="fill:#707487;" d="M343.686,229.512c5.859-13.59,5.492-28.493,5.492-44.139c0-63.38-51.482-114.761-114.988-114.761
	s-114.988,51.381-114.988,114.761c0,15.646-0.367,30.548,5.492,44.139H343.686z"/>
<path style="fill:#5B5D6E;" d="M204.936,229.513h58.509c14.285-9.486,23.711-25.705,23.711-44.139
	c0-29.253-23.714-52.966-52.966-52.966s-52.966,23.714-52.966,52.966C181.225,203.808,190.652,220.026,204.936,229.513z"/>
<g>
	<path style="fill:#E4EAF6;" d="M137.086,176.547h-17.655v17.655h17.655c4.875,0,8.828-3.948,8.828-8.828
		S141.961,176.547,137.086,176.547z"/>
	<path style="fill:#E4EAF6;" d="M331.296,176.547c-4.875,0-8.828,3.948-8.828,8.828s3.953,8.828,8.828,8.828h17.655v-17.655H331.296
		z"/>
	<path style="fill:#E4EAF6;" d="M225.363,88.27c0,4.875,3.948,8.828,8.828,8.828s8.828-3.953,8.828-8.828V70.614h-17.655V88.27z"/>
	<path style="fill:#E4EAF6;" d="M296.613,110.468c-3.447,3.447-3.451,9.034,0,12.485c3.451,3.451,9.037,3.447,12.485,0
		l12.485-12.485l-12.485-12.485L296.613,110.468z"/>
	<path style="fill:#E4EAF6;" d="M159.286,122.953c3.447,3.447,9.034,3.451,12.485,0c3.451-3.451,3.447-9.037,0-12.485
		l-12.485-12.484l-12.485,12.485L159.286,122.953z"/>
</g>
<g>
	<path style="fill:#858AA0;" d="M320.526,140.058c-4.504,1.866-6.645,7.026-4.778,11.533c1.867,4.508,7.03,6.643,11.535,4.778
		l16.311-6.757l-6.757-16.311L320.526,140.058z"/>
	<path style="fill:#858AA0;" d="M188.875,99.04c1.866,4.504,7.026,6.645,11.533,4.778c4.508-1.867,6.643-7.03,4.778-11.535
		l-6.757-16.311l-16.311,6.757L188.875,99.04z"/>
	<path style="fill:#858AA0;" d="M263.196,92.283c-1.866,4.504,0.269,9.666,4.778,11.535c4.508,1.867,9.669-0.274,11.533-4.778
		l6.757-16.311l-16.311-6.757L263.196,92.283z"/>
	<path style="fill:#858AA0;" d="M141.099,156.369c4.504,1.866,9.666-0.269,11.535-4.778c1.867-4.508-0.274-9.669-4.778-11.533
		l-16.311-6.757l-6.757,16.311L141.099,156.369z"/>
</g>
<path style="fill:#FF6464;" d="M216.536,211.858c-2.259,0-4.518-0.862-6.241-2.587c-3.448-3.448-3.448-9.035,0-12.484l61.794-61.794
	c3.448-3.448,9.035-3.448,12.484,0s3.448,9.035,0,12.484l-61.794,61.794C221.053,210.995,218.795,211.858,216.536,211.858z"/>
<circle style="fill:#464655;" cx="234.189" cy="185.371" r="17.655"/>
<path style="fill:#5B5D6E;" d="M343.357,229.513c-0.897,0-1.815-0.138-2.716-0.431c-4.638-1.5-7.186-6.474-5.685-11.112
	c3.431-10.603,5.169-21.569,5.169-32.595c0-58.415-47.522-105.933-105.933-105.933s-105.933,47.519-105.933,105.933
	c0,11.026,1.737,21.992,5.169,32.595c1.5,4.638-1.047,9.612-5.685,11.112c-4.651,1.517-9.612-1.052-11.116-5.681
	c-3.996-12.353-6.022-25.156-6.022-38.027c0-68.148,55.44-123.588,123.588-123.588s123.588,55.44,123.588,123.588
	c0,12.871-2.026,25.673-6.022,38.027C350.546,227.133,347.086,229.513,343.357,229.513z"/>
</svg>